<?xml version="1.0" encoding="utf-8"?>
<!-- Generator: Adobe Illustrator 26.5.0, SVG Export Plug-In . SVG Version: 6.00 Build 0)  -->
<svg version="1.1" id="Calque_1" xmlns="http://www.w3.org/2000/svg" xmlns:xlink="http://www.w3.org/1999/xlink" x="0px" y="0px"
	 viewBox="0 0 20.4 20" style="enable-background:new 0 0 20.4 20;" xml:space="preserve">
<style type="text/css">
	.st0{fill:#FFFFFF;}
</style>
<g>
	<path class="st0" d="M6.9,17.8C5.9,17.8,5,17,5,15.9S5.9,14,6.9,14c1.1,0,1.9,0.9,1.9,1.9S8,17.8,6.9,17.8z"/>
	<path class="st0" d="M15.5,17.8c-1.1,0-1.9-0.9-1.9-1.9s0.9-1.9,1.9-1.9c1.1,0,1.9,0.9,1.9,1.9S16.6,17.8,15.5,17.8z"/>
	<path class="st0" d="M15.5,16.2H7.4c-0.2,0-0.4-0.1-0.6-0.3c-0.1-0.2-0.2-0.4-0.1-0.6l1.1-2.7c0.1-0.2,0.2-0.2,0.4-0.2
		c0.2,0.1,0.2,0.2,0.2,0.4l-1.1,2.7c0,0,0,0.1,0,0.1c0,0,0.1,0.1,0.1,0.1h8.2c0.2,0,0.3,0.1,0.3,0.3C15.8,16.1,15.7,16.2,15.5,16.2z
		"/>
	<g>
		<path class="st0" d="M18.1,5.5c-0.1-0.2-0.4-0.3-0.6-0.3l-12.3,0L4.6,3.9c0-0.1-0.2-0.2-0.3-0.2H1.6C1.4,3.7,1.3,3.8,1.3,4
			c0,0.2,0.1,0.3,0.3,0.3h2.5l3.6,8.3C7.9,12.8,8.1,13,8.4,13h7.1c0.3,0,0.6-0.2,0.7-0.5l2-6.4C18.2,5.9,18.2,5.7,18.1,5.5z
			 M14.9,11.3h-6c-0.2,0-0.3-0.1-0.3-0.3c0-0.2,0.1-0.3,0.3-0.3h6c0.2,0,0.3,0.1,0.3,0.3C15.2,11.1,15,11.3,14.9,11.3z M15.4,9.4
			H8.3C8.2,9.4,8,9.3,8,9.1c0-0.2,0.1-0.3,0.3-0.3h7.1c0.2,0,0.3,0.1,0.3,0.3C15.7,9.3,15.6,9.4,15.4,9.4z M15.8,7.5H7.9
			c-0.2,0-0.3-0.1-0.3-0.3c0-0.2,0.1-0.3,0.3-0.3h7.9c0.2,0,0.3,0.1,0.3,0.3C16.1,7.4,16,7.5,15.8,7.5z"/>
	</g>
	<path class="st0" d="M2.2,4c0,0.3-0.2,0.5-0.5,0.5C1.4,4.5,1.2,4.3,1.2,4c0-0.3,0.2-0.5,0.5-0.5C1.9,3.5,2.2,3.7,2.2,4z"/>
</g>
</svg>
